<mxfile host="Electron" modified="2024-07-16T15:45:46.961Z" agent="Mozilla/5.0 (Windows NT 10.0; Win64; x64) AppleWebKit/537.36 (KHTML, like Gecko) draw.io/24.6.4 Chrome/124.0.6367.207 Electron/30.0.6 Safari/537.36" etag="Z7Sr3rW2dQl_tzswKscx" version="24.6.4" type="device">
  <diagram id="C5RBs43oDa-KdzZeNtuy" name="Page-1">
    <mxGraphModel dx="1290" dy="669" grid="1" gridSize="10" guides="1" tooltips="1" connect="1" arrows="1" fold="1" page="1" pageScale="1" pageWidth="827" pageHeight="1169" math="0" shadow="0">
      <root>
        <mxCell id="WIyWlLk6GJQsqaUBKTNV-0" />
        <mxCell id="WIyWlLk6GJQsqaUBKTNV-1" parent="WIyWlLk6GJQsqaUBKTNV-0" />
        <mxCell id="fcOP2j_ndJX6HQ1X1BAr-5" style="edgeStyle=orthogonalEdgeStyle;rounded=0;orthogonalLoop=1;jettySize=auto;html=1;entryX=0;entryY=0.5;entryDx=0;entryDy=0;" edge="1" parent="WIyWlLk6GJQsqaUBKTNV-1" source="fcOP2j_ndJX6HQ1X1BAr-0" target="fcOP2j_ndJX6HQ1X1BAr-3">
          <mxGeometry relative="1" as="geometry" />
        </mxCell>
        <mxCell id="fcOP2j_ndJX6HQ1X1BAr-12" style="edgeStyle=orthogonalEdgeStyle;rounded=0;orthogonalLoop=1;jettySize=auto;html=1;entryX=0.5;entryY=1;entryDx=0;entryDy=0;" edge="1" parent="WIyWlLk6GJQsqaUBKTNV-1" source="fcOP2j_ndJX6HQ1X1BAr-0" target="fcOP2j_ndJX6HQ1X1BAr-10">
          <mxGeometry relative="1" as="geometry" />
        </mxCell>
        <mxCell id="fcOP2j_ndJX6HQ1X1BAr-0" value="file" style="ellipse;whiteSpace=wrap;html=1;" vertex="1" parent="WIyWlLk6GJQsqaUBKTNV-1">
          <mxGeometry x="80" y="400" width="120" height="80" as="geometry" />
        </mxCell>
        <mxCell id="fcOP2j_ndJX6HQ1X1BAr-9" style="edgeStyle=orthogonalEdgeStyle;rounded=0;orthogonalLoop=1;jettySize=auto;html=1;entryX=1;entryY=0.5;entryDx=0;entryDy=0;" edge="1" parent="WIyWlLk6GJQsqaUBKTNV-1" source="fcOP2j_ndJX6HQ1X1BAr-1" target="fcOP2j_ndJX6HQ1X1BAr-3">
          <mxGeometry relative="1" as="geometry" />
        </mxCell>
        <mxCell id="fcOP2j_ndJX6HQ1X1BAr-14" style="edgeStyle=orthogonalEdgeStyle;rounded=0;orthogonalLoop=1;jettySize=auto;html=1;entryX=0.5;entryY=1;entryDx=0;entryDy=0;" edge="1" parent="WIyWlLk6GJQsqaUBKTNV-1" source="fcOP2j_ndJX6HQ1X1BAr-1" target="fcOP2j_ndJX6HQ1X1BAr-11">
          <mxGeometry relative="1" as="geometry" />
        </mxCell>
        <mxCell id="fcOP2j_ndJX6HQ1X1BAr-1" value="folder" style="ellipse;whiteSpace=wrap;html=1;" vertex="1" parent="WIyWlLk6GJQsqaUBKTNV-1">
          <mxGeometry x="600" y="400" width="120" height="80" as="geometry" />
        </mxCell>
        <mxCell id="fcOP2j_ndJX6HQ1X1BAr-3" value="folder of file" style="ellipse;whiteSpace=wrap;html=1;" vertex="1" parent="WIyWlLk6GJQsqaUBKTNV-1">
          <mxGeometry x="320" y="400" width="120" height="80" as="geometry" />
        </mxCell>
        <mxCell id="fcOP2j_ndJX6HQ1X1BAr-16" style="edgeStyle=orthogonalEdgeStyle;rounded=0;orthogonalLoop=1;jettySize=auto;html=1;entryX=0.5;entryY=0;entryDx=0;entryDy=0;" edge="1" parent="WIyWlLk6GJQsqaUBKTNV-1" source="fcOP2j_ndJX6HQ1X1BAr-4" target="fcOP2j_ndJX6HQ1X1BAr-10">
          <mxGeometry relative="1" as="geometry" />
        </mxCell>
        <mxCell id="fcOP2j_ndJX6HQ1X1BAr-17" style="edgeStyle=orthogonalEdgeStyle;rounded=0;orthogonalLoop=1;jettySize=auto;html=1;entryX=0.5;entryY=0;entryDx=0;entryDy=0;" edge="1" parent="WIyWlLk6GJQsqaUBKTNV-1" source="fcOP2j_ndJX6HQ1X1BAr-4" target="fcOP2j_ndJX6HQ1X1BAr-11">
          <mxGeometry relative="1" as="geometry" />
        </mxCell>
        <mxCell id="fcOP2j_ndJX6HQ1X1BAr-4" value="tag" style="ellipse;whiteSpace=wrap;html=1;" vertex="1" parent="WIyWlLk6GJQsqaUBKTNV-1">
          <mxGeometry x="320" y="80" width="120" height="80" as="geometry" />
        </mxCell>
        <mxCell id="fcOP2j_ndJX6HQ1X1BAr-10" value="tag of file" style="ellipse;whiteSpace=wrap;html=1;" vertex="1" parent="WIyWlLk6GJQsqaUBKTNV-1">
          <mxGeometry x="160" y="200" width="120" height="80" as="geometry" />
        </mxCell>
        <mxCell id="fcOP2j_ndJX6HQ1X1BAr-11" value="tag of fordel" style="ellipse;whiteSpace=wrap;html=1;" vertex="1" parent="WIyWlLk6GJQsqaUBKTNV-1">
          <mxGeometry x="520" y="200" width="120" height="80" as="geometry" />
        </mxCell>
        <mxCell id="fcOP2j_ndJX6HQ1X1BAr-18" value="Tag" style="swimlane;fontStyle=0;childLayout=stackLayout;horizontal=1;startSize=26;fillColor=none;horizontalStack=0;resizeParent=1;resizeParentMax=0;resizeLast=0;collapsible=1;marginBottom=0;whiteSpace=wrap;html=1;" vertex="1" parent="WIyWlLk6GJQsqaUBKTNV-1">
          <mxGeometry x="1321" y="120" width="140" height="104" as="geometry" />
        </mxCell>
        <mxCell id="fcOP2j_ndJX6HQ1X1BAr-19" value="+ Tag Name : string" style="text;strokeColor=none;fillColor=none;align=left;verticalAlign=top;spacingLeft=4;spacingRight=4;overflow=hidden;rotatable=0;points=[[0,0.5],[1,0.5]];portConstraint=eastwest;whiteSpace=wrap;html=1;" vertex="1" parent="fcOP2j_ndJX6HQ1X1BAr-18">
          <mxGeometry y="26" width="140" height="26" as="geometry" />
        </mxCell>
        <mxCell id="fcOP2j_ndJX6HQ1X1BAr-20" value="+ Tag Info : string&lt;span style=&quot;white-space: pre;&quot;&gt;&#x9;&lt;/span&gt;" style="text;strokeColor=none;fillColor=none;align=left;verticalAlign=top;spacingLeft=4;spacingRight=4;overflow=hidden;rotatable=0;points=[[0,0.5],[1,0.5]];portConstraint=eastwest;whiteSpace=wrap;html=1;" vertex="1" parent="fcOP2j_ndJX6HQ1X1BAr-18">
          <mxGeometry y="52" width="140" height="26" as="geometry" />
        </mxCell>
        <mxCell id="fcOP2j_ndJX6HQ1X1BAr-59" value="+ Tag Id: string" style="text;strokeColor=none;fillColor=none;align=left;verticalAlign=top;spacingLeft=4;spacingRight=4;overflow=hidden;rotatable=0;points=[[0,0.5],[1,0.5]];portConstraint=eastwest;whiteSpace=wrap;html=1;" vertex="1" parent="fcOP2j_ndJX6HQ1X1BAr-18">
          <mxGeometry y="78" width="140" height="26" as="geometry" />
        </mxCell>
        <mxCell id="fcOP2j_ndJX6HQ1X1BAr-22" value="Tag of file" style="swimlane;fontStyle=0;childLayout=stackLayout;horizontal=1;startSize=26;fillColor=none;horizontalStack=0;resizeParent=1;resizeParentMax=0;resizeLast=0;collapsible=1;marginBottom=0;whiteSpace=wrap;html=1;" vertex="1" parent="WIyWlLk6GJQsqaUBKTNV-1">
          <mxGeometry x="1040" y="240" width="140" height="104" as="geometry" />
        </mxCell>
        <mxCell id="fcOP2j_ndJX6HQ1X1BAr-24" value="+ Tag file id: int" style="text;strokeColor=none;fillColor=none;align=left;verticalAlign=top;spacingLeft=4;spacingRight=4;overflow=hidden;rotatable=0;points=[[0,0.5],[1,0.5]];portConstraint=eastwest;whiteSpace=wrap;html=1;" vertex="1" parent="fcOP2j_ndJX6HQ1X1BAr-22">
          <mxGeometry y="26" width="140" height="26" as="geometry" />
        </mxCell>
        <mxCell id="fcOP2j_ndJX6HQ1X1BAr-23" value="+ Tag Id int" style="text;strokeColor=none;fillColor=none;align=left;verticalAlign=top;spacingLeft=4;spacingRight=4;overflow=hidden;rotatable=0;points=[[0,0.5],[1,0.5]];portConstraint=eastwest;whiteSpace=wrap;html=1;" vertex="1" parent="fcOP2j_ndJX6HQ1X1BAr-22">
          <mxGeometry y="52" width="140" height="26" as="geometry" />
        </mxCell>
        <mxCell id="fcOP2j_ndJX6HQ1X1BAr-25" value="+ File id : int" style="text;strokeColor=none;fillColor=none;align=left;verticalAlign=top;spacingLeft=4;spacingRight=4;overflow=hidden;rotatable=0;points=[[0,0.5],[1,0.5]];portConstraint=eastwest;whiteSpace=wrap;html=1;" vertex="1" parent="fcOP2j_ndJX6HQ1X1BAr-22">
          <mxGeometry y="78" width="140" height="26" as="geometry" />
        </mxCell>
        <mxCell id="fcOP2j_ndJX6HQ1X1BAr-26" value="Tag of folder" style="swimlane;fontStyle=0;childLayout=stackLayout;horizontal=1;startSize=26;fillColor=none;horizontalStack=0;resizeParent=1;resizeParentMax=0;resizeLast=0;collapsible=1;marginBottom=0;whiteSpace=wrap;html=1;" vertex="1" parent="WIyWlLk6GJQsqaUBKTNV-1">
          <mxGeometry x="1560" y="240" width="140" height="104" as="geometry" />
        </mxCell>
        <mxCell id="fcOP2j_ndJX6HQ1X1BAr-27" value="+ Tag folder id : int" style="text;strokeColor=none;fillColor=none;align=left;verticalAlign=top;spacingLeft=4;spacingRight=4;overflow=hidden;rotatable=0;points=[[0,0.5],[1,0.5]];portConstraint=eastwest;whiteSpace=wrap;html=1;" vertex="1" parent="fcOP2j_ndJX6HQ1X1BAr-26">
          <mxGeometry y="26" width="140" height="26" as="geometry" />
        </mxCell>
        <mxCell id="fcOP2j_ndJX6HQ1X1BAr-28" value="+ Tag id : int" style="text;strokeColor=none;fillColor=none;align=left;verticalAlign=top;spacingLeft=4;spacingRight=4;overflow=hidden;rotatable=0;points=[[0,0.5],[1,0.5]];portConstraint=eastwest;whiteSpace=wrap;html=1;" vertex="1" parent="fcOP2j_ndJX6HQ1X1BAr-26">
          <mxGeometry y="52" width="140" height="26" as="geometry" />
        </mxCell>
        <mxCell id="fcOP2j_ndJX6HQ1X1BAr-29" value="+ Folder id: int" style="text;strokeColor=none;fillColor=none;align=left;verticalAlign=top;spacingLeft=4;spacingRight=4;overflow=hidden;rotatable=0;points=[[0,0.5],[1,0.5]];portConstraint=eastwest;whiteSpace=wrap;html=1;" vertex="1" parent="fcOP2j_ndJX6HQ1X1BAr-26">
          <mxGeometry y="78" width="140" height="26" as="geometry" />
        </mxCell>
        <mxCell id="fcOP2j_ndJX6HQ1X1BAr-30" value="File" style="swimlane;fontStyle=0;childLayout=stackLayout;horizontal=1;startSize=26;fillColor=none;horizontalStack=0;resizeParent=1;resizeParentMax=0;resizeLast=0;collapsible=1;marginBottom=0;whiteSpace=wrap;html=1;" vertex="1" parent="WIyWlLk6GJQsqaUBKTNV-1">
          <mxGeometry x="1040" y="520" width="180" height="234" as="geometry" />
        </mxCell>
        <mxCell id="fcOP2j_ndJX6HQ1X1BAr-31" value="+ File id: int" style="text;strokeColor=none;fillColor=none;align=left;verticalAlign=top;spacingLeft=4;spacingRight=4;overflow=hidden;rotatable=0;points=[[0,0.5],[1,0.5]];portConstraint=eastwest;whiteSpace=wrap;html=1;" vertex="1" parent="fcOP2j_ndJX6HQ1X1BAr-30">
          <mxGeometry y="26" width="180" height="26" as="geometry" />
        </mxCell>
        <mxCell id="fcOP2j_ndJX6HQ1X1BAr-34" value="+ File name : string" style="text;strokeColor=none;fillColor=none;align=left;verticalAlign=top;spacingLeft=4;spacingRight=4;overflow=hidden;rotatable=0;points=[[0,0.5],[1,0.5]];portConstraint=eastwest;whiteSpace=wrap;html=1;" vertex="1" parent="fcOP2j_ndJX6HQ1X1BAr-30">
          <mxGeometry y="52" width="180" height="26" as="geometry" />
        </mxCell>
        <mxCell id="fcOP2j_ndJX6HQ1X1BAr-35" value="+ Type file: string" style="text;strokeColor=none;fillColor=none;align=left;verticalAlign=top;spacingLeft=4;spacingRight=4;overflow=hidden;rotatable=0;points=[[0,0.5],[1,0.5]];portConstraint=eastwest;whiteSpace=wrap;html=1;" vertex="1" parent="fcOP2j_ndJX6HQ1X1BAr-30">
          <mxGeometry y="78" width="180" height="26" as="geometry" />
        </mxCell>
        <mxCell id="fcOP2j_ndJX6HQ1X1BAr-36" value="+ File url : string" style="text;strokeColor=none;fillColor=none;align=left;verticalAlign=top;spacingLeft=4;spacingRight=4;overflow=hidden;rotatable=0;points=[[0,0.5],[1,0.5]];portConstraint=eastwest;whiteSpace=wrap;html=1;" vertex="1" parent="fcOP2j_ndJX6HQ1X1BAr-30">
          <mxGeometry y="104" width="180" height="26" as="geometry" />
        </mxCell>
        <mxCell id="fcOP2j_ndJX6HQ1X1BAr-37" value="+ Update date : datetime" style="text;strokeColor=none;fillColor=none;align=left;verticalAlign=top;spacingLeft=4;spacingRight=4;overflow=hidden;rotatable=0;points=[[0,0.5],[1,0.5]];portConstraint=eastwest;whiteSpace=wrap;html=1;" vertex="1" parent="fcOP2j_ndJX6HQ1X1BAr-30">
          <mxGeometry y="130" width="180" height="26" as="geometry" />
        </mxCell>
        <mxCell id="fcOP2j_ndJX6HQ1X1BAr-39" value="+ key word: string?" style="text;strokeColor=none;fillColor=none;align=left;verticalAlign=top;spacingLeft=4;spacingRight=4;overflow=hidden;rotatable=0;points=[[0,0.5],[1,0.5]];portConstraint=eastwest;whiteSpace=wrap;html=1;" vertex="1" parent="fcOP2j_ndJX6HQ1X1BAr-30">
          <mxGeometry y="156" width="180" height="26" as="geometry" />
        </mxCell>
        <mxCell id="fcOP2j_ndJX6HQ1X1BAr-40" value="+ File size : float" style="text;strokeColor=none;fillColor=none;align=left;verticalAlign=top;spacingLeft=4;spacingRight=4;overflow=hidden;rotatable=0;points=[[0,0.5],[1,0.5]];portConstraint=eastwest;whiteSpace=wrap;html=1;" vertex="1" parent="fcOP2j_ndJX6HQ1X1BAr-30">
          <mxGeometry y="182" width="180" height="26" as="geometry" />
        </mxCell>
        <mxCell id="fcOP2j_ndJX6HQ1X1BAr-38" value="+ User id : int" style="text;strokeColor=none;fillColor=none;align=left;verticalAlign=top;spacingLeft=4;spacingRight=4;overflow=hidden;rotatable=0;points=[[0,0.5],[1,0.5]];portConstraint=eastwest;whiteSpace=wrap;html=1;" vertex="1" parent="fcOP2j_ndJX6HQ1X1BAr-30">
          <mxGeometry y="208" width="180" height="26" as="geometry" />
        </mxCell>
        <mxCell id="fcOP2j_ndJX6HQ1X1BAr-42" value="Folder of file" style="swimlane;fontStyle=0;childLayout=stackLayout;horizontal=1;startSize=26;fillColor=none;horizontalStack=0;resizeParent=1;resizeParentMax=0;resizeLast=0;collapsible=1;marginBottom=0;whiteSpace=wrap;html=1;" vertex="1" parent="WIyWlLk6GJQsqaUBKTNV-1">
          <mxGeometry x="1321" y="520" width="140" height="104" as="geometry" />
        </mxCell>
        <mxCell id="fcOP2j_ndJX6HQ1X1BAr-43" value="+ Folder file id : int" style="text;strokeColor=none;fillColor=none;align=left;verticalAlign=top;spacingLeft=4;spacingRight=4;overflow=hidden;rotatable=0;points=[[0,0.5],[1,0.5]];portConstraint=eastwest;whiteSpace=wrap;html=1;" vertex="1" parent="fcOP2j_ndJX6HQ1X1BAr-42">
          <mxGeometry y="26" width="140" height="26" as="geometry" />
        </mxCell>
        <mxCell id="fcOP2j_ndJX6HQ1X1BAr-44" value="+ Folder id : int" style="text;strokeColor=none;fillColor=none;align=left;verticalAlign=top;spacingLeft=4;spacingRight=4;overflow=hidden;rotatable=0;points=[[0,0.5],[1,0.5]];portConstraint=eastwest;whiteSpace=wrap;html=1;" vertex="1" parent="fcOP2j_ndJX6HQ1X1BAr-42">
          <mxGeometry y="52" width="140" height="26" as="geometry" />
        </mxCell>
        <mxCell id="fcOP2j_ndJX6HQ1X1BAr-45" value="+ File id : int" style="text;strokeColor=none;fillColor=none;align=left;verticalAlign=top;spacingLeft=4;spacingRight=4;overflow=hidden;rotatable=0;points=[[0,0.5],[1,0.5]];portConstraint=eastwest;whiteSpace=wrap;html=1;" vertex="1" parent="fcOP2j_ndJX6HQ1X1BAr-42">
          <mxGeometry y="78" width="140" height="26" as="geometry" />
        </mxCell>
        <mxCell id="fcOP2j_ndJX6HQ1X1BAr-46" value="Folder" style="swimlane;fontStyle=0;childLayout=stackLayout;horizontal=1;startSize=26;fillColor=none;horizontalStack=0;resizeParent=1;resizeParentMax=0;resizeLast=0;collapsible=1;marginBottom=0;whiteSpace=wrap;html=1;" vertex="1" parent="WIyWlLk6GJQsqaUBKTNV-1">
          <mxGeometry x="1560" y="520" width="180" height="234" as="geometry" />
        </mxCell>
        <mxCell id="fcOP2j_ndJX6HQ1X1BAr-47" value="+ Folder id: int" style="text;strokeColor=none;fillColor=none;align=left;verticalAlign=top;spacingLeft=4;spacingRight=4;overflow=hidden;rotatable=0;points=[[0,0.5],[1,0.5]];portConstraint=eastwest;whiteSpace=wrap;html=1;" vertex="1" parent="fcOP2j_ndJX6HQ1X1BAr-46">
          <mxGeometry y="26" width="180" height="26" as="geometry" />
        </mxCell>
        <mxCell id="fcOP2j_ndJX6HQ1X1BAr-48" value="+ Folder name : string" style="text;strokeColor=none;fillColor=none;align=left;verticalAlign=top;spacingLeft=4;spacingRight=4;overflow=hidden;rotatable=0;points=[[0,0.5],[1,0.5]];portConstraint=eastwest;whiteSpace=wrap;html=1;" vertex="1" parent="fcOP2j_ndJX6HQ1X1BAr-46">
          <mxGeometry y="52" width="180" height="26" as="geometry" />
        </mxCell>
        <mxCell id="fcOP2j_ndJX6HQ1X1BAr-49" value="+ Folder Url: string" style="text;strokeColor=none;fillColor=none;align=left;verticalAlign=top;spacingLeft=4;spacingRight=4;overflow=hidden;rotatable=0;points=[[0,0.5],[1,0.5]];portConstraint=eastwest;whiteSpace=wrap;html=1;" vertex="1" parent="fcOP2j_ndJX6HQ1X1BAr-46">
          <mxGeometry y="78" width="180" height="26" as="geometry" />
        </mxCell>
        <mxCell id="fcOP2j_ndJX6HQ1X1BAr-50" value="+ Update date: datetime" style="text;strokeColor=none;fillColor=none;align=left;verticalAlign=top;spacingLeft=4;spacingRight=4;overflow=hidden;rotatable=0;points=[[0,0.5],[1,0.5]];portConstraint=eastwest;whiteSpace=wrap;html=1;" vertex="1" parent="fcOP2j_ndJX6HQ1X1BAr-46">
          <mxGeometry y="104" width="180" height="26" as="geometry" />
        </mxCell>
        <mxCell id="fcOP2j_ndJX6HQ1X1BAr-51" value="+ key word : string?" style="text;strokeColor=none;fillColor=none;align=left;verticalAlign=top;spacingLeft=4;spacingRight=4;overflow=hidden;rotatable=0;points=[[0,0.5],[1,0.5]];portConstraint=eastwest;whiteSpace=wrap;html=1;" vertex="1" parent="fcOP2j_ndJX6HQ1X1BAr-46">
          <mxGeometry y="130" width="180" height="26" as="geometry" />
        </mxCell>
        <mxCell id="fcOP2j_ndJX6HQ1X1BAr-52" value="+ File size : float" style="text;strokeColor=none;fillColor=none;align=left;verticalAlign=top;spacingLeft=4;spacingRight=4;overflow=hidden;rotatable=0;points=[[0,0.5],[1,0.5]];portConstraint=eastwest;whiteSpace=wrap;html=1;" vertex="1" parent="fcOP2j_ndJX6HQ1X1BAr-46">
          <mxGeometry y="156" width="180" height="26" as="geometry" />
        </mxCell>
        <mxCell id="fcOP2j_ndJX6HQ1X1BAr-53" value="+ Folder parent id : int?" style="text;strokeColor=none;fillColor=none;align=left;verticalAlign=top;spacingLeft=4;spacingRight=4;overflow=hidden;rotatable=0;points=[[0,0.5],[1,0.5]];portConstraint=eastwest;whiteSpace=wrap;html=1;" vertex="1" parent="fcOP2j_ndJX6HQ1X1BAr-46">
          <mxGeometry y="182" width="180" height="26" as="geometry" />
        </mxCell>
        <mxCell id="fcOP2j_ndJX6HQ1X1BAr-54" value="+ User id: int" style="text;strokeColor=none;fillColor=none;align=left;verticalAlign=top;spacingLeft=4;spacingRight=4;overflow=hidden;rotatable=0;points=[[0,0.5],[1,0.5]];portConstraint=eastwest;whiteSpace=wrap;html=1;" vertex="1" parent="fcOP2j_ndJX6HQ1X1BAr-46">
          <mxGeometry y="208" width="180" height="26" as="geometry" />
        </mxCell>
        <mxCell id="fcOP2j_ndJX6HQ1X1BAr-55" style="edgeStyle=orthogonalEdgeStyle;rounded=0;orthogonalLoop=1;jettySize=auto;html=1;" edge="1" parent="WIyWlLk6GJQsqaUBKTNV-1" source="fcOP2j_ndJX6HQ1X1BAr-47" target="fcOP2j_ndJX6HQ1X1BAr-44">
          <mxGeometry relative="1" as="geometry">
            <mxPoint x="1500" y="590" as="targetPoint" />
          </mxGeometry>
        </mxCell>
        <mxCell id="fcOP2j_ndJX6HQ1X1BAr-56" style="edgeStyle=orthogonalEdgeStyle;rounded=0;orthogonalLoop=1;jettySize=auto;html=1;" edge="1" parent="WIyWlLk6GJQsqaUBKTNV-1" source="fcOP2j_ndJX6HQ1X1BAr-31" target="fcOP2j_ndJX6HQ1X1BAr-45">
          <mxGeometry relative="1" as="geometry" />
        </mxCell>
        <mxCell id="fcOP2j_ndJX6HQ1X1BAr-58" style="edgeStyle=orthogonalEdgeStyle;rounded=0;orthogonalLoop=1;jettySize=auto;html=1;entryX=0;entryY=0.5;entryDx=0;entryDy=0;" edge="1" parent="WIyWlLk6GJQsqaUBKTNV-1" source="fcOP2j_ndJX6HQ1X1BAr-31" target="fcOP2j_ndJX6HQ1X1BAr-25">
          <mxGeometry relative="1" as="geometry" />
        </mxCell>
        <mxCell id="fcOP2j_ndJX6HQ1X1BAr-60" style="edgeStyle=orthogonalEdgeStyle;rounded=0;orthogonalLoop=1;jettySize=auto;html=1;entryX=1;entryY=0.5;entryDx=0;entryDy=0;" edge="1" parent="WIyWlLk6GJQsqaUBKTNV-1" source="fcOP2j_ndJX6HQ1X1BAr-59" target="fcOP2j_ndJX6HQ1X1BAr-23">
          <mxGeometry relative="1" as="geometry" />
        </mxCell>
        <mxCell id="fcOP2j_ndJX6HQ1X1BAr-63" style="edgeStyle=orthogonalEdgeStyle;rounded=0;orthogonalLoop=1;jettySize=auto;html=1;entryX=0;entryY=0.5;entryDx=0;entryDy=0;" edge="1" parent="WIyWlLk6GJQsqaUBKTNV-1" source="fcOP2j_ndJX6HQ1X1BAr-59" target="fcOP2j_ndJX6HQ1X1BAr-28">
          <mxGeometry relative="1" as="geometry" />
        </mxCell>
        <mxCell id="fcOP2j_ndJX6HQ1X1BAr-64" style="edgeStyle=orthogonalEdgeStyle;rounded=0;orthogonalLoop=1;jettySize=auto;html=1;entryX=1;entryY=0.5;entryDx=0;entryDy=0;" edge="1" parent="WIyWlLk6GJQsqaUBKTNV-1" source="fcOP2j_ndJX6HQ1X1BAr-47" target="fcOP2j_ndJX6HQ1X1BAr-29">
          <mxGeometry relative="1" as="geometry">
            <Array as="points">
              <mxPoint x="1760" y="559" />
              <mxPoint x="1760" y="331" />
            </Array>
          </mxGeometry>
        </mxCell>
        <mxCell id="fcOP2j_ndJX6HQ1X1BAr-71" value="&lt;h1 style=&quot;margin-top: 0px;&quot;&gt;Chức năng (dự định)&lt;/h1&gt;&lt;p&gt;+ CRUD File&lt;/p&gt;&lt;p&gt;+ CRUD Folder&lt;/p&gt;&lt;p&gt;+ CRUD Tag&lt;/p&gt;&lt;p&gt;+ Tìm kiếm File&lt;/p&gt;&lt;p&gt;+ Tìm kiếm Folder&lt;/p&gt;&lt;p&gt;+ Tìm kiếm Tag&lt;/p&gt;&lt;p&gt;+ Tự động sắp xếp file theo thẻ (mặc định cho file đơn lẻ)&lt;/p&gt;&lt;p&gt;+ Phân loại dữ liệu theo thẻ Tag&lt;/p&gt;&lt;p&gt;&amp;nbsp;+ Phân vùng cho dữ liệu đơn lẻ&lt;/p&gt;&lt;p&gt;+ Quản lý dữ liệu&lt;/p&gt;&lt;p&gt;+ Quản lý phân quyền người dùng (identity framework)&lt;/p&gt;&lt;p&gt;+ bảo mật (jwt bearer)&lt;/p&gt;&lt;p&gt;+ Phân rõ vai trò giữ vai trò sở hữu và không giữ vai trò sở hữu&lt;/p&gt;&lt;p&gt;+ tự động đánh giá mức độ hoàn thiện và đưa ra thông báo gợi ý ( đánh giá cá nhân 7start GTA)&lt;/p&gt;" style="text;html=1;whiteSpace=wrap;overflow=hidden;rounded=0;" vertex="1" parent="WIyWlLk6GJQsqaUBKTNV-1">
          <mxGeometry x="1840" y="80" width="560" height="640" as="geometry" />
        </mxCell>
      </root>
    </mxGraphModel>
  </diagram>
</mxfile>
